<svg version="1.1" id="Layer_1" xmlns="http://www.w3.org/2000/svg" xmlns:xlink="http://www.w3.org/1999/xlink" x="0px" y="0px"
	 width="100%" viewBox="0 0 832 688" enable-background="new 0 0 832 688" xml:space="preserve">
<path fill="#000000" opacity="1.000000" stroke="none" 
	d="
M544.447388,636.536682 
	C511.649323,650.657227 477.754425,658.193542 442.502289,660.407776 
	C401.984772,662.952881 362.331055,658.724792 323.670563,646.371277 
	C282.058228,633.074524 245.612534,610.861328 213.517334,581.332581 
	C184.283417,554.436157 160.147369,523.655334 142.473175,487.998962 
	C127.778351,458.353241 118.567139,427.061798 114.490799,394.186310 
	C107.264076,335.903168 113.993721,279.579773 137.819092,225.671555 
	C150.096924,197.891296 166.672226,172.778122 186.697662,149.951904 
	C214.825485,117.890106 247.619431,91.779480 285.991058,72.985123 
	C315.394318,58.583469 346.424286,49.548767 378.966095,45.514137 
	C435.334869,38.525375 490.447998,43.649338 542.351379,67.068893 
	C630.242493,106.726662 690.086975,172.408157 718.401123,265.303711 
	C729.135559,300.522125 731.706726,336.774902 729.531067,373.506561 
	C725.895142,434.890503 705.246887,489.817505 667.805481,538.427368 
	C634.888184,581.163635 594.391052,614.522278 544.447388,636.536682 
M396.022034,298.438141 
	C377.035034,250.724777 339.048462,227.229752 288.499756,233.616302 
	C249.390976,238.557480 221.994003,260.673492 206.390778,296.475037 
	C189.456375,335.330963 192.383072,374.550262 208.269409,412.959290 
	C218.509521,437.717255 237.017105,454.680786 262.073547,464.310516 
	C278.415649,470.591187 295.474182,471.521454 312.743103,470.892120 
	C335.433289,470.065094 355.856567,463.212402 373.446991,448.548340 
	C387.084106,437.179871 395.982178,422.832184 400.409271,405.708679 
	C401.902679,399.932220 400.608948,398.371643 394.732239,398.318359 
	C386.899567,398.247314 379.063538,398.398376 371.233704,398.231781 
	C367.933319,398.161591 366.147614,399.139587 365.113342,402.540344 
	C359.943573,419.538910 347.846802,429.826050 331.672638,435.712402 
	C320.368317,439.826416 308.556152,440.513824 296.681488,439.276459 
	C271.918365,436.696075 252.905746,425.333221 241.522369,402.561096 
	C236.110672,391.735138 234.609573,380.028412 233.860870,368.190277 
	C233.397217,360.859039 233.772812,360.640533 241.140137,360.641510 
	C293.806335,360.648407 346.472565,360.668427 399.138763,360.662323 
	C405.751312,360.661560 405.816559,360.478912 405.870514,353.955719 
	C406.026489,335.101959 402.654266,316.871368 396.022034,298.438141 
M442.221588,435.675354 
	C434.439819,446.895050 426.001617,457.685730 418.850037,469.245728 
	C421.667358,471.515564 423.901917,471.059143 426.012604,471.067413 
	C436.512207,471.108521 447.021545,470.837158 457.507080,471.225250 
	C461.570435,471.375641 463.844391,470.112671 466.042389,466.822815 
	C486.037292,436.895325 506.182312,407.068085 526.318970,377.235504 
	C527.380859,375.662292 528.006287,373.509216 530.411072,373.246399 
	C532.437134,374.395294 533.346863,376.437775 534.541016,378.208557 
	C554.479004,407.773865 574.434326,437.327759 594.249878,466.975067 
	C596.252686,469.971558 598.466736,471.165283 602.020752,471.117371 
	C614.185059,470.953461 626.353210,471.093658 638.519226,471.015106 
	C640.376709,471.003113 642.537292,471.723297 644.049561,469.804993 
	C643.530579,467.347137 641.896729,465.606720 640.556152,463.732269 
	C612.638184,424.696991 584.736877,385.649567 556.680725,346.713776 
	C554.358215,343.490631 554.644165,341.316986 556.881775,338.390564 
	C564.673889,328.199585 572.261902,317.852753 579.942627,307.576385 
	C596.503479,285.418732 613.092468,263.281921 629.605042,241.088287 
	C630.936768,239.298401 633.368164,237.475342 632.314148,235.013672 
	C631.068237,232.104034 627.927734,233.268326 625.587952,233.236679 
	C615.589600,233.101517 605.585205,233.308044 595.590698,233.068100 
	C591.661316,232.973770 589.138062,234.307159 586.870544,237.515686 
	C569.177490,262.551636 551.341125,287.486328 533.524963,312.435150 
	C532.594177,313.738556 531.974548,315.450012 529.992065,315.773773 
	C527.894165,315.074738 527.214355,313.029663 526.118652,311.440796 
	C509.090240,286.747345 492.065674,262.051056 475.152435,237.278793 
	C473.169830,234.374939 470.984619,233.005646 467.377228,233.061813 
	C455.213501,233.251190 443.045135,233.135178 430.878723,233.175446 
	C429.250092,233.180832 427.340210,232.877670 426.353882,234.598007 
	C425.284637,236.463120 427.046295,237.635696 427.853027,238.997192 
	C428.361053,239.854614 428.980469,240.647888 429.572235,241.453552 
	C454.035950,274.762238 478.455566,308.103546 503.038818,341.323761 
	C505.555206,344.724243 505.579132,347.024231 503.077362,350.494659 
	C482.811218,378.607666 462.759583,406.875336 442.221588,435.675354 
z"/>
<path fill="#000000" opacity="1.000000" stroke="none" 
	d="
M360.723816,303.449005 
	C363.827484,310.905273 365.741333,318.273529 366.910309,325.886139 
	C367.453644,329.424225 366.295502,330.943604 362.855621,330.990845 
	C361.856049,331.004578 360.856506,331.040588 359.856964,331.040924 
	C320.531036,331.053375 281.205078,331.073212 241.879135,331.064148 
	C233.994858,331.062347 233.694290,330.967651 234.783936,323.420868 
	C240.352692,284.852325 270.937775,259.883575 310.002533,265.399323 
	C333.587677,268.729431 350.347351,281.630035 360.723816,303.449005 
z"/>
</svg>